<svg width="32" height="32" viewBox="0 0 36 18" fill="none" xmlns="http://www.w3.org/2000/svg">
  <rect x="0" y="0" width="3.5" height="3.5" rx="0.75" fill="#C4841D"/>
  <rect x="4.5" y="0" width="3.5" height="3.5" rx="0.75" fill="#C4841D"/>
  <rect x="9" y="0" width="3.5" height="3.5" rx="0.75" fill="#5a3a0a"/>
  <rect x="13.5" y="0" width="3.5" height="3.5" rx="0.75" fill="#C4841D"/>
  <rect x="19" y="0" width="3.5" height="3.5" rx="0.75" fill="#5a3a0a"/>
  <rect x="23.5" y="0" width="3.5" height="3.5" rx="0.75" fill="#C4841D"/>
  <rect x="28" y="0" width="3.5" height="3.5" rx="0.75" fill="#C4841D"/>
  <rect x="32.5" y="0" width="3.5" height="3.5" rx="0.75" fill="#5a3a0a"/>
  <rect x="0" y="4.75" width="3.5" height="3.5" rx="0.75" fill="#C4841D"/>
  <rect x="4.5" y="4.75" width="3.5" height="3.5" rx="0.75" fill="#5a3a0a"/>
  <rect x="9" y="4.75" width="3.5" height="3.5" rx="0.75" fill="#C4841D"/>
  <rect x="13.5" y="4.75" width="3.5" height="3.5" rx="0.75" fill="#C4841D"/>
  <rect x="19" y="4.75" width="3.5" height="3.5" rx="0.75" fill="#C4841D"/>
  <rect x="23.5" y="4.75" width="3.5" height="3.5" rx="0.75" fill="#C4841D"/>
  <rect x="28" y="4.75" width="3.5" height="3.5" rx="0.75" fill="#5a3a0a"/>
  <rect x="32.5" y="4.75" width="3.5" height="3.5" rx="0.75" fill="#C4841D"/>
  <rect x="0" y="9.5" width="3.5" height="3.5" rx="0.75" fill="#5a3a0a"/>
  <rect x="4.5" y="9.5" width="3.5" height="3.5" rx="0.75" fill="#C4841D"/>
  <rect x="9" y="9.5" width="3.5" height="3.5" rx="0.75" fill="#C4841D"/>
  <rect x="13.5" y="9.5" width="3.5" height="3.5" rx="0.75" fill="#C4841D"/>
  <rect x="19" y="9.5" width="3.5" height="3.5" rx="0.75" fill="#5a3a0a"/>
  <rect x="23.5" y="9.5" width="3.5" height="3.5" rx="0.75" fill="#C4841D"/>
  <rect x="28" y="9.5" width="3.5" height="3.5" rx="0.75" fill="#5a3a0a"/>
  <rect x="32.5" y="9.5" width="3.5" height="3.5" rx="0.75" fill="#5a3a0a"/>
  <rect x="0" y="14.25" width="3.5" height="3.5" rx="0.75" fill="#C4841D"/>
  <rect x="4.5" y="14.25" width="3.5" height="3.5" rx="0.75" fill="#C4841D"/>
  <rect x="9" y="14.25" width="3.5" height="3.5" rx="0.75" fill="#5a3a0a"/>
  <rect x="13.5" y="14.25" width="3.5" height="3.5" rx="0.75" fill="#C4841D"/>
  <rect x="19" y="14.25" width="3.5" height="3.5" rx="0.75" fill="#C4841D"/>
  <rect x="23.5" y="14.25" width="3.5" height="3.5" rx="0.75" fill="#5a3a0a"/>
  <rect x="28" y="14.25" width="3.5" height="3.5" rx="0.75" fill="#C4841D"/>
  <rect x="32.5" y="14.25" width="3.5" height="3.5" rx="0.75" fill="#C4841D"/>
</svg>
